<!DOCTYPE svg PUBLIC "-//W3C//DTD SVG 1.1//EN" "http://www.w3.org/Graphics/SVG/1.1/DTD/svg11.dtd">
<svg xmlns="http://www.w3.org/2000/svg" viewBox="0 0 566 92">
<path fill="#083ca4" d="M71 46v39h70V7H71v39m3 0v36h64V10H74v36m5-21.287c0 .392 1.421 5.342 3.159 11L85.317 46l-3.158 10.287C78.522 68.131 78.542 68 80.418 68c.867 0 2.277-2.626 3.624-6.75 3.038-9.299 3.333-9.339 5.819-.786C91.065 64.609 92.452 68 92.943 68c.491 0 2.092-3.6 3.557-8 1.465-4.4 2.815-8 3-8 .185 0 1.535 3.6 3 8s3.064 8 3.553 8c.489 0 1.861-3.263 3.048-7.25 2.942-9.882 3.234-9.936 6.035-1.111 3.171 9.991 4.178 10.128 6.906.939 2.615-8.809 3.132-8.808 5.519.009 1.59 5.873 3.54 8.645 5.032 7.154.278-.279-.956-5.284-2.744-11.124L126.6 46l3.249-10.617c1.788-5.84 3.022-10.845 2.744-11.124-1.492-1.491-3.442 1.281-5.032 7.154-2.378 8.783-2.833 8.785-5.581.023-2.853-9.097-3.699-8.982-6.844.925-2.801 8.825-3.093 8.771-6.035-1.111-1.187-3.988-2.559-7.25-3.048-7.25-.489 0-2.088 3.6-3.553 8-1.465 4.4-2.815 8-3 8-.185 0-1.535-3.6-3-8s-3.041-8-3.501-8c-.461 0-1.845 3.394-3.076 7.542-2.54 8.556-2.84 8.516-5.881-.792-1.347-4.124-2.757-6.75-3.624-6.75-.78 0-1.418.321-1.418.713M162 45.5V67h4.952l.274-16.433.274-16.432 8 15.12c4.4 8.316 8.45 15.257 9 15.425.55.168 4.6-6.554 9-14.937l8-15.243.275 16.25.275 16.25H207V23.867l-2.705.317c-2.376.278-3.692 2.169-10.822 15.555-4.464 8.381-8.345 15.466-8.623 15.744-.278.278-4.296-6.679-8.928-15.461-7.737-14.668-8.646-15.969-11.172-15.994L162 24v21.5m93.384-12.587c-14.473 6.573-13.74 27.967 1.154 33.655 10.47 3.998 20.778-1.973 22.453-13.006l.692-4.562h-7.342c-7.164 0-7.341.06-7.341 2.5 0 2.296.367 2.5 4.5 2.5 5.421 0 5.631 1.069 1.1 5.6-10.034 10.034-25.751-3.738-19.051-16.694 3.558-6.88 13.643-9.139 19.353-4.335 2.73 2.297 3.27 2.422 5.058 1.169 1.968-1.378 1.955-1.447-.804-4.091-5.032-4.821-12.811-5.897-19.772-2.736m124.052-.843c-14.856 4.317-16.321 26.967-2.186 33.809 13.025 6.305 26.25-1.946 26.25-16.379 0-13.439-10.822-21.277-24.064-17.43M218 49.5V67h10c9.259 0 10-.145 10-1.956 0-1.735-.821-1.99-7.25-2.25l-7.25-.294-.298-6.25-.297-6.25h7.047c6.851 0 7.048-.07 7.048-2.5 0-2.431-.196-2.5-7.057-2.5h-7.058l.308-4.25.307-4.25 7.25-.294c6.429-.26 7.25-.515 7.25-2.25 0-1.811-.741-1.956-10-1.956h-10v17.5m77.595-10.339a3717.98 3717.98 0 0 1-7.984 17.214C282.189 67.987 282.387 67 285.48 67c1.886 0 2.968-.957 4.52-4l2.041-4H307.696l1.804 4c1.476 3.274 2.308 4 4.581 4h2.777l-7.744-17.188c-4.259-9.454-8.285-17.369-8.945-17.589-.695-.232-2.623 2.692-4.574 6.938m26.642 10.37c3.892 9.642 7.512 17.386 8.046 17.208.534-.178 2.781-5.127 4.993-10.998 2.213-5.871 4.341-10.477 4.731-10.237.389.241 2.403 5.195 4.474 11.009 2.072 5.814 4.233 10.416 4.802 10.226.57-.19 4.294-8.084 8.276-17.542L364.8 32h-2.78c-2.602 0-3.083.734-7.558 11.541-2.629 6.348-5.097 11.185-5.484 10.75-.388-.435-2.437-5.628-4.554-11.541-2.117-5.913-4.141-10.75-4.499-10.75-.358 0-2.61 5.167-5.005 11.483-2.395 6.315-4.676 11.153-5.069 10.75-.393-.403-2.579-5.57-4.857-11.483C321.073 32.573 320.7 32 318.007 32h-2.845l7.075 17.531m89.763-.14V67h6V52.801l5.25 7.066c4.637 6.24 5.636 7.069 8.557 7.099l3.307.034-5.588-7.142-5.588-7.142 2.967-1.804c5.68-3.454 6.931-10.666 2.703-15.581-2.152-2.502-3.155-2.82-10-3.165L412 31.781v17.61m30 .109V67h8c7.262 0 8-.18 8-1.948 0-1.644-.817-1.995-5.25-2.25l-5.25-.302V31.998l-2.75.001L442 32v17.5m24 0V67h7.184c13.487 0 20.304-5.876 20.304-17.5 0-11.643-6.652-17.5-19.874-17.5H466v17.5m-375-10L88.837 46 91 52.5c1.19 3.575 2.315 6.5 2.5 6.5.185 0 1.31-2.925 2.5-6.5l2.163-6.5L96 39.5c-1.19-3.575-2.315-6.5-2.5-6.5-.185 0-1.31 2.925-2.5 6.5m12.294 0-2.113 6.5 2.113 6.5c2.606 8.013 2.805 8.017 5.372.122l2.073-6.377-2.065-6.623c-2.547-8.167-2.762-8.171-5.38-.122m12.706 0-2.163 6.5L116 52.5c1.19 3.575 2.315 6.5 2.5 6.5.185 0 1.31-2.925 2.5-6.5l2.163-6.5L121 39.5c-1.19-3.575-2.315-6.5-2.5-6.5-.185 0-1.31 2.925-2.5 6.5m262.5-1.512c-8.385 5.518-8.399 17.821-.026 22.996 8.994 5.559 20.519-.892 20.519-11.484 0-10.527-11.864-17.191-20.493-11.512m39.5 4.037c0 5.94.017 5.975 2.929 5.975 3.694 0 6.071-2.329 6.071-5.949 0-3.306-1.325-4.547-5.75-5.385L418 36.05v5.975m53.654-5.346c-1.107 1.107-.751 25.143.383 25.844 2.318 1.433 9.454-.814 12.61-3.97 7.993-7.993 3.375-20.283-8.243-21.942-2.253-.322-4.39-.291-4.75.068M296.739 48l-2.589 6h5.425c6.237 0 6.157.17 3.181-6.733-2.822-6.545-2.88-6.537-6.017.733" fill-rule="evenodd"/>
</svg>